<svg width="297" height="34" viewBox="0 0 297 34" fill="none" xmlns="http://www.w3.org/2000/svg">
<path d="M150.189 12.252L157.757 10.21V15.8154C157.757 15.8154 162.281 15.8154 171.33 15.8154C172.825 15.8154 173.866 15.068 174.453 13.5732C174.693 12.9593 174.813 12.3187 174.813 11.6514C174.813 10.0231 174.266 8.83529 173.172 8.08789C172.611 7.74089 171.997 7.56738 171.33 7.56738H150.189L152.231 0.800781H171.41C175.334 0.800781 178.377 2.22884 180.539 5.08496C182.061 7.11361 182.821 9.42253 182.821 12.0117C182.821 15.1081 181.78 17.6572 179.698 19.6592C178.604 20.7002 177.323 21.4609 175.854 21.9414L183.742 32.6318H174.813L167.887 22.582H157.757V32.6318H150.189V12.252Z" fill="white"/>
<path d="M194.673 20.1396V25.8652H215.85L215.854 32.6318H187.105V0.800781H215.85L215.854 7.56738H194.673V13.373H214.412L211.412 20.1396H194.673Z" fill="white"/>
<path d="M232.229 28.3877L234.992 21.9014H243.881L237.675 8.68848L226.584 32.6318H218.616L233.711 2.04199L241.318 0L256.974 32.6318H248.966L246.964 28.3877H232.229Z" fill="white"/>
<path d="M259.256 0.800781H266.823V25.8652H289.205L287.163 32.6318C287.163 32.6318 277.861 32.6318 259.256 32.6318C259.256 32.6318 259.256 22.0215 259.256 0.800781Z" fill="white"/>
<path d="M24.3066 0.800781H31.874C31.874 0.800781 31.874 11.4111 31.874 32.6318H24.3066L7.65039 11.6514V32.6318H0.0830078V0H7.65039L24.3066 20.9805V0.800781Z" fill="white"/>
<path d="M43.6855 16.7363C43.6855 21.3008 45.3538 24.2236 48.6904 25.5049C50.2653 26.1188 52.2673 26.4258 54.6963 26.4258C60.3818 26.4258 63.8118 24.4772 64.9863 20.5801C65.3066 19.4323 65.4668 18.151 65.4668 16.7363C65.4668 11.5312 63.2246 8.42155 58.7402 7.40723C57.5391 7.1403 56.1911 7.00684 54.6963 7.00684C49.5446 7.00684 46.2214 8.47493 44.7266 11.4111C44.0326 12.8258 43.6855 14.6009 43.6855 16.7363ZM73.4746 16.7363C73.4746 22.9824 71.0589 27.5469 66.2275 30.4297C62.9977 32.3516 59.0205 33.3125 54.2959 33.3125C48.5036 33.3125 43.9124 31.7643 40.5225 28.668C37.2926 25.7051 35.6777 21.7279 35.6777 16.7363C35.6777 10.8372 37.8665 6.3929 42.2441 3.40332C45.5007 1.21452 49.5179 0.120117 54.2959 0.120117C60.5954 0.120117 65.4668 1.76172 68.9102 5.04492C71.9531 7.95443 73.4746 11.8516 73.4746 16.7363Z" fill="white"/>
<path d="M77.1982 12.292L84.7656 10.25V25.8652H96.6973C98.9928 25.8652 100.728 24.5973 101.902 22.0615C102.676 20.4333 103.063 18.5915 103.063 16.5361C103.063 13.3864 102.276 10.9707 100.701 9.28906C99.6068 8.14128 98.2721 7.56738 96.6973 7.56738H77.1982L79.2402 0.800781H97.6182C101.942 0.800781 105.372 2.61589 107.908 6.24609C110.017 9.28906 111.071 12.8792 111.071 17.0166C111.071 21.4209 109.897 25.0778 107.548 27.9873C105.065 31.057 101.756 32.6051 97.6182 32.6318H77.1982V12.292Z" fill="white"/>
<path d="M122.442 20.1396V25.8652H145.665L143.623 32.6318H114.875V0.800781H145.665L143.623 7.56738H122.442V13.373H142.182V20.1396H122.442Z" fill="white"/>
</svg>
